<svg xmlns="http://www.w3.org/2000/svg" width="92" height="92" viewBox="0 0 92 92">
  <defs>
    <style>
      .cls-1 {
        fill: #fff;
        fill-rule: evenodd;
        opacity: 0.5;
      }
    </style>
  </defs>
  <path id="arrow.svg" class="cls-1" d="M754,808a46,46,0,1,1,46,46A46.053,46.053,0,0,1,754,808Zm88.88,0A42.881,42.881,0,1,0,800,850.884,42.929,42.929,0,0,0,842.876,808Zm-59.031-5.776a1.561,1.561,0,0,1,2.665-1.1l14.148,14.134,14.148-14.134a1.561,1.561,0,0,1,2.208,2.208l-15.251,15.232a1.557,1.557,0,0,1-2.208,0L784.3,803.332A1.559,1.559,0,0,1,783.845,802.227Z" transform="translate(-754 -762)"/>
</svg>
