<svg xmlns="http://www.w3.org/2000/svg" width="191.906" height="148.06" viewBox="0 0 191.906 148.06">
  <defs>
    <style>
      .cls-1 {
        fill: #005494;
        fill-rule: evenodd;
      }
    </style>
  </defs>
  <path id="design.svg" class="cls-1" d="M707.049,1346.52h75.212V1235.44H707.049v111.08Zm39.193-5.57a3.57,3.57,0,1,1,3.627-3.57A3.6,3.6,0,0,1,746.242,1340.95Zm-28.316-94.8h53.467l0,81.95H717.926v-81.95Zm26.322-37.23h120.53v48.16H875.4v-58.61H733.628v32.22h10.62v-21.77Zm42.861,71.13h55.857v10.45H787.109v-10.45Zm61.348-18.92v83.65h50.514v-83.65H848.457Zm26.379,3.47a1.2,1.2,0,1,1-1.223,1.2A1.2,1.2,0,0,1,874.836,1264.6Zm-7.265,4.01H882.1v1.15h-14.53v-1.15Zm6.787,72.56a2.87,2.87,0,1,1,2.915-2.87A2.9,2.9,0,0,1,874.358,1341.17Zm16.508-9.85c-13.119.08-27.8,0.12-34.3,0.07v-57.52h34.3v57.45Zm-88.385-36.54H787.109v6.34H824.55v2.77H787.109v5.73h55.857v-14.84H802.481Z" transform="translate(-707.063 -1198.47)"/>
</svg>
