<svg xmlns="http://www.w3.org/2000/svg" width="75" height="132" viewBox="0 0 75 132">
  <defs>
    <style>
      .cls-1 {
        fill: #005494;
        fill-rule: evenodd;
      }
    </style>
  </defs>
  <path id="iphone.svg" class="cls-1" d="M429.36,1200H373.635a9.623,9.623,0,0,0-9.632,9.62v112.77a9.621,9.621,0,0,0,9.632,9.61h55.72a9.63,9.63,0,0,0,9.642-9.61V1209.62A9.624,9.624,0,0,0,429.36,1200Zm-41.615,5.84H415.26c0.695,0,1.255,1.04,1.255,2.32s-0.56,2.32-1.255,2.32H387.745c-0.695,0-1.25-1.04-1.25-2.32S387.05,1205.84,387.745,1205.84ZM401.5,1322.51a6.135,6.135,0,1,1,6.153-6.14A6.151,6.151,0,0,1,401.5,1322.51Zm30.276-21.02H371.227v-85.27h60.551v85.27Z" transform="translate(-364 -1200)"/>
</svg>
