<svg xmlns="http://www.w3.org/2000/svg" width="41.031" height="41.03" viewBox="0 0 41.031 41.03">
  <defs>
    <style>
      .cls-1 {
        fill: #fff;
        fill-rule: evenodd;
        opacity: 0.9;
      }
    </style>
  </defs>
  <path id="link.svg" class="cls-1" d="M420.244,2681.73a2.583,2.583,0,0,0-3.64,0l-5.217,5.22a12.812,12.812,0,0,0-16.116,1.63l-7.69,7.69a12.818,12.818,0,0,0-1.632,16.13l-5.217,5.22a2.565,2.565,0,1,0,3.624,3.63l5.216-5.22a12.776,12.776,0,0,0,7.07,2.13,12.978,12.978,0,0,0,9.062-3.76l7.676-7.69a12.82,12.82,0,0,0,1.631-16.13l5.232-5.22A2.568,2.568,0,0,0,420.244,2681.73Zm-8.236,15.91a7.633,7.633,0,0,1-2.253,5.44l-7.676,7.69a7.811,7.811,0,0,1-5.437,2.26,7.729,7.729,0,0,1-3.293-.77l3.716-3.83a2.557,2.557,0,0,0,0-3.62,2.419,2.419,0,0,0-3.517,0l-3.824,3.82a7.546,7.546,0,0,1-.772-3.29,7.633,7.633,0,0,1,2.253-5.44l7.583-7.69a7.866,7.866,0,0,1,5.545-2.26,7.715,7.715,0,0,1,3.289.77l-3.9,3.91a2.563,2.563,0,1,0,3.62,3.63l3.9-3.91A7.573,7.573,0,0,1,412.008,2697.64Z" transform="translate(-379.969 -2680.97)"/>
</svg>
